<?xml version="1.0" encoding="UTF-8"?>
<svg xmlns="http://www.w3.org/2000/svg" xmlns:xlink="http://www.w3.org/1999/xlink" width="56pt" height="56pt" viewBox="0 0 56 56" version="1.1">
<g id="surface1">
<path style=" stroke:none;fill-rule:nonzero;fill:rgb(94.117647%,24.705882%,30.588235%);fill-opacity:1;" d="M 15.839844 28.914062 C 14.945312 28.914062 14.214844 28.222656 14.214844 27.371094 C 14.214844 26.519531 14.945312 25.828125 15.839844 25.828125 C 16.738281 25.828125 17.46875 26.519531 17.46875 27.371094 C 17.46875 28.222656 16.738281 28.914062 15.839844 28.914062 Z M 19.792969 19.859375 C 13.324219 22.578125 9.082031 28.359375 9.082031 28.359375 C 9.117188 28.394531 11.941406 31.699219 14.929688 30.941406 C 15.085938 30.902344 15.085938 31.332031 15 31.464844 C 14.816406 31.75 14.375 31.757812 14.03125 31.757812 C 12.214844 31.757812 10.285156 30.292969 9.304688 29.421875 C 10.695312 31.074219 14.449219 35.132812 19.332031 37.335938 C 22.976562 31.4375 20.359375 21.769531 19.792969 19.859375 "/>
<path style=" stroke:none;fill-rule:nonzero;fill:rgb(94.117647%,24.705882%,30.588235%);fill-opacity:1;" d="M 40.769531 26.453125 C 39.507812 25.128906 37.683594 23.429688 35.476562 21.949219 C 35.027344 21.644531 34.816406 20.808594 32.886719 19.367188 C 29.855469 17.109375 29.695312 17.320312 26.886719 17.1875 C 26.683594 17.179688 25.925781 18.582031 25.71875 18.582031 C 23.894531 18.582031 22.136719 18.96875 20.488281 19.582031 C 21.046875 21.386719 23.855469 31.324219 20.019531 37.628906 C 21.484375 38.222656 23.039062 38.640625 24.65625 38.769531 C 25.007812 38.796875 25.363281 38.8125 25.71875 38.8125 C 26.261719 38.8125 26.800781 38.777344 27.332031 38.714844 C 28.210938 38.609375 29.070312 38.421875 29.90625 38.167969 C 34.984375 36.632812 39.148438 32.714844 41.253906 30.429688 C 41.253906 30.429688 45.007812 35.746094 46.367188 35.121094 C 47.84375 34.445312 45.933594 31.230469 45.765625 27.980469 C 45.605469 24.871094 47.242188 21.714844 46.257812 21.097656 C 44.957031 20.28125 40.769531 26.453125 40.769531 26.453125 "/>
<path style=" stroke:none;fill-rule:nonzero;fill:rgb(94.117647%,24.705882%,30.588235%);fill-opacity:1;" d="M 28.003906 5.152344 C 15.382812 5.152344 5.15625 15.382812 5.15625 28 C 5.15625 40.617188 15.382812 50.847656 28.003906 50.847656 C 40.621094 50.847656 50.851562 40.617188 50.851562 28 C 50.851562 15.382812 40.621094 5.152344 28.003906 5.152344 Z M 28.003906 7.292969 C 39.421875 7.292969 48.707031 16.582031 48.707031 28 C 48.707031 39.417969 39.421875 48.707031 28.003906 48.707031 C 16.585938 48.707031 7.296875 39.417969 7.296875 28 C 7.296875 16.582031 16.585938 7.292969 28.003906 7.292969 "/>
</g>
</svg>
