<?xml version="1.0" encoding="UTF-8"?>
<svg xmlns="http://www.w3.org/2000/svg" xmlns:xlink="http://www.w3.org/1999/xlink" width="36pt" height="36pt" viewBox="0 0 36 36" version="1.1">
<g id="surface1">
<path style=" stroke:none;fill-rule:nonzero;fill:rgb(0%,0%,0%);fill-opacity:1;" d="M 35.027344 30.253906 L 26.765625 21.988281 C 25.53125 23.902344 23.902344 25.53125 21.988281 26.761719 L 30.25 35.027344 C 31.570312 36.34375 33.710938 36.34375 35.027344 35.027344 C 36.34375 33.710938 36.34375 31.570312 35.027344 30.253906 Z M 35.027344 30.253906 "/>
<path style=" stroke:none;fill-rule:nonzero;fill:rgb(0%,0%,0%);fill-opacity:1;" d="M 27.011719 13.507812 C 27.011719 6.046875 20.964844 0 13.507812 0 C 6.046875 0 0 6.046875 0 13.507812 C 0 20.964844 6.046875 27.011719 13.507812 27.011719 C 20.964844 27.011719 27.011719 20.964844 27.011719 13.507812 Z M 13.507812 23.636719 C 7.921875 23.636719 3.375 19.089844 3.375 13.507812 C 3.375 7.921875 7.921875 3.375 13.507812 3.375 C 19.089844 3.375 23.636719 7.921875 23.636719 13.507812 C 23.636719 19.089844 19.089844 23.636719 13.507812 23.636719 Z M 13.507812 23.636719 "/>
<path style=" stroke:none;fill-rule:nonzero;fill:rgb(0%,0%,0%);fill-opacity:1;" d="M 5.628906 13.507812 L 7.878906 13.507812 C 7.878906 10.402344 10.402344 7.878906 13.507812 7.878906 L 13.507812 5.628906 C 9.164062 5.628906 5.628906 9.164062 5.628906 13.507812 Z M 5.628906 13.507812 "/>
</g>
</svg>
